# xmcd CD database file
#
# Track frame offsets:
#	151
#	31082
#	55395
#	81062
#	101387
#	122100
#	141925
#
# Disc length: 2219 seconds
#
# Revision: 0
# Processed by: cddbd v1.5.1PL0 Copyright (c) Steve Scherf et al.
# Submitted via: CDex 1.51
#
DISCID=5508a907
DTITLE=Shantana - Vivo Cantando
DYEAR=1997
DGENRE=Merengue
TTITLE0=Mosaico de Alabanzas
TTITLE1=Vivo Cantando
TTITLE2=Cae Cae
TTITLE3=Los Locos de la Ciudad
TTITLE4=Contigo
TTITLE5=Nadie Me Ama Como Tú
TTITLE6=Abrázame Espíritu Santo
EXTD=YEAR: 1997
EXTT0=
EXTT1=
EXTT2=
EXTT3=
EXTT4=
EXTT5=
EXTT6=
PLAYORDER=
